<mxfile host="Electron" agent="Mozilla/5.0 (Windows NT 10.0; Win64; x64) AppleWebKit/537.36 (KHTML, like Gecko) draw.io/24.7.17 Chrome/128.0.6613.36 Electron/32.0.1 Safari/537.36" version="24.7.17">
  <diagram name="Page-1" id="tA_EH-nPveRmfFOmx6vR">
    <mxGraphModel dx="3725" dy="1553" grid="1" gridSize="10" guides="1" tooltips="1" connect="1" arrows="1" fold="1" page="1" pageScale="1" pageWidth="1100" pageHeight="850" background="#FFFFFF" math="0" shadow="1">
      <root>
        <mxCell id="0" />
        <mxCell id="1" parent="0" />
        <mxCell id="aQRq2t5taz81R_kyDHLw-74" value="" style="rounded=0;whiteSpace=wrap;html=1;labelBackgroundColor=none;shadow=1;glass=0;strokeColor=#000000;" parent="1" vertex="1">
          <mxGeometry x="-430" y="80" width="2120" height="1490" as="geometry" />
        </mxCell>
        <mxCell id="aQRq2t5taz81R_kyDHLw-25" style="edgeStyle=orthogonalEdgeStyle;rounded=0;orthogonalLoop=1;jettySize=auto;html=1;exitX=1;exitY=0.5;exitDx=0;exitDy=0;strokeWidth=3;labelBackgroundColor=none;fontColor=default;strokeColor=#000000;" parent="1" source="aQRq2t5taz81R_kyDHLw-1" target="aQRq2t5taz81R_kyDHLw-17" edge="1">
          <mxGeometry relative="1" as="geometry" />
        </mxCell>
        <mxCell id="aQRq2t5taz81R_kyDHLw-26" style="edgeStyle=orthogonalEdgeStyle;rounded=0;orthogonalLoop=1;jettySize=auto;html=1;exitX=0.041;exitY=0.734;exitDx=0;exitDy=0;entryX=1.003;entryY=0.874;entryDx=0;entryDy=0;exitPerimeter=0;strokeWidth=3;entryPerimeter=0;labelBackgroundColor=none;fontColor=default;strokeColor=#000000;" parent="1" source="aQRq2t5taz81R_kyDHLw-1" target="aQRq2t5taz81R_kyDHLw-11" edge="1">
          <mxGeometry relative="1" as="geometry">
            <mxPoint x="290.00000000000006" y="973.42" as="targetPoint" />
            <mxPoint x="463.4314575050763" y="999.9885424949238" as="sourcePoint" />
          </mxGeometry>
        </mxCell>
        <mxCell id="aQRq2t5taz81R_kyDHLw-1" value="&lt;b&gt;&lt;font style=&quot;font-size: 17px;&quot;&gt;Browse/Search Trees&lt;/font&gt;&lt;/b&gt;" style="ellipse;whiteSpace=wrap;html=1;aspect=fixed;strokeWidth=3;labelBackgroundColor=none;rounded=0;strokeColor=#000000;fillColor=#99FF99;" parent="1" vertex="1">
          <mxGeometry x="420" y="870" width="160" height="160" as="geometry" />
        </mxCell>
        <mxCell id="aQRq2t5taz81R_kyDHLw-32" style="edgeStyle=orthogonalEdgeStyle;rounded=0;orthogonalLoop=1;jettySize=auto;html=1;entryX=0.5;entryY=1;entryDx=0;entryDy=0;strokeWidth=3;labelBackgroundColor=none;fontColor=default;strokeColor=#000000;" parent="1" source="aQRq2t5taz81R_kyDHLw-3" target="aQRq2t5taz81R_kyDHLw-17" edge="1">
          <mxGeometry relative="1" as="geometry" />
        </mxCell>
        <mxCell id="aQRq2t5taz81R_kyDHLw-3" value="&lt;b&gt;&lt;font style=&quot;font-size: 17px;&quot;&gt;View Tree Profile&lt;/font&gt;&lt;/b&gt;" style="ellipse;whiteSpace=wrap;html=1;aspect=fixed;strokeWidth=3;labelBackgroundColor=none;rounded=0;strokeColor=#000000;fillColor=#99FF99;" parent="1" vertex="1">
          <mxGeometry x="417.5" y="1080" width="165" height="165" as="geometry" />
        </mxCell>
        <mxCell id="aQRq2t5taz81R_kyDHLw-38" style="edgeStyle=orthogonalEdgeStyle;rounded=0;orthogonalLoop=1;jettySize=auto;html=1;exitX=0;exitY=0.5;exitDx=0;exitDy=0;entryX=1;entryY=0.5;entryDx=0;entryDy=0;strokeWidth=3;labelBackgroundColor=none;fontColor=default;strokeColor=#000000;" parent="1" source="aQRq2t5taz81R_kyDHLw-4" target="aQRq2t5taz81R_kyDHLw-17" edge="1">
          <mxGeometry relative="1" as="geometry" />
        </mxCell>
        <mxCell id="aQRq2t5taz81R_kyDHLw-4" value="&lt;b&gt;&lt;font style=&quot;font-size: 17px;&quot;&gt;Submit Tree Sighting&lt;/font&gt;&lt;/b&gt;" style="ellipse;whiteSpace=wrap;html=1;aspect=fixed;strokeWidth=3;labelBackgroundColor=none;rounded=0;strokeColor=#000000;fillColor=#99FF99;" parent="1" vertex="1">
          <mxGeometry x="994" y="855" width="190" height="190" as="geometry" />
        </mxCell>
        <mxCell id="aQRq2t5taz81R_kyDHLw-69" style="edgeStyle=orthogonalEdgeStyle;rounded=0;orthogonalLoop=1;jettySize=auto;html=1;exitX=0.5;exitY=1;exitDx=0;exitDy=0;entryX=0.5;entryY=0;entryDx=0;entryDy=0;strokeWidth=3;labelBackgroundColor=none;fontColor=default;strokeColor=#000000;" parent="1" source="aQRq2t5taz81R_kyDHLw-5" target="aQRq2t5taz81R_kyDHLw-21" edge="1">
          <mxGeometry relative="1" as="geometry" />
        </mxCell>
        <mxCell id="aQRq2t5taz81R_kyDHLw-5" value="&lt;b&gt;&lt;font style=&quot;font-size: 17px;&quot;&gt;Create/Manage Posts&lt;/font&gt;&lt;/b&gt;" style="ellipse;whiteSpace=wrap;html=1;aspect=fixed;strokeWidth=3;labelBackgroundColor=none;rounded=0;strokeColor=#000000;fillColor=#99FF99;" parent="1" vertex="1">
          <mxGeometry x="949.5" y="302.5" width="205" height="205" as="geometry" />
        </mxCell>
        <mxCell id="aQRq2t5taz81R_kyDHLw-42" style="edgeStyle=orthogonalEdgeStyle;rounded=0;orthogonalLoop=1;jettySize=auto;html=1;exitX=0.5;exitY=1;exitDx=0;exitDy=0;entryX=0.5;entryY=0;entryDx=0;entryDy=0;strokeWidth=3;labelBackgroundColor=none;fontColor=default;strokeColor=#000000;" parent="1" source="aQRq2t5taz81R_kyDHLw-6" target="aQRq2t5taz81R_kyDHLw-17" edge="1">
          <mxGeometry relative="1" as="geometry" />
        </mxCell>
        <mxCell id="aQRq2t5taz81R_kyDHLw-43" style="edgeStyle=orthogonalEdgeStyle;rounded=0;orthogonalLoop=1;jettySize=auto;html=1;exitX=1;exitY=0.5;exitDx=0;exitDy=0;entryX=0;entryY=0.5;entryDx=0;entryDy=0;strokeWidth=3;labelBackgroundColor=none;fontColor=default;strokeColor=#000000;" parent="1" source="aQRq2t5taz81R_kyDHLw-6" target="aQRq2t5taz81R_kyDHLw-21" edge="1">
          <mxGeometry relative="1" as="geometry" />
        </mxCell>
        <mxCell id="aQRq2t5taz81R_kyDHLw-6" value="&lt;b&gt;&lt;font style=&quot;font-size: 17px;&quot;&gt;Content Approval&lt;/font&gt;&lt;/b&gt;" style="ellipse;whiteSpace=wrap;html=1;aspect=fixed;strokeWidth=3;labelBackgroundColor=none;rounded=0;strokeColor=#000000;fillColor=#99FF99;" parent="1" vertex="1">
          <mxGeometry x="662.5" y="570" width="185" height="185" as="geometry" />
        </mxCell>
        <mxCell id="aQRq2t5taz81R_kyDHLw-46" style="edgeStyle=orthogonalEdgeStyle;rounded=0;orthogonalLoop=1;jettySize=auto;html=1;entryX=1;entryY=0.5;entryDx=0;entryDy=0;strokeWidth=3;labelBackgroundColor=none;fontColor=default;strokeColor=#000000;" parent="1" source="aQRq2t5taz81R_kyDHLw-7" target="aQRq2t5taz81R_kyDHLw-20" edge="1">
          <mxGeometry relative="1" as="geometry" />
        </mxCell>
        <mxCell id="aQRq2t5taz81R_kyDHLw-7" value="&lt;b&gt;&lt;font style=&quot;font-size: 17px;&quot;&gt;Manage Users&lt;/font&gt;&lt;/b&gt;" style="ellipse;whiteSpace=wrap;html=1;aspect=fixed;strokeWidth=3;labelBackgroundColor=none;rounded=0;strokeColor=#000000;fillColor=#99FF99;" parent="1" vertex="1">
          <mxGeometry x="-80" y="567.5" width="190" height="190" as="geometry" />
        </mxCell>
        <mxCell id="aQRq2t5taz81R_kyDHLw-51" style="edgeStyle=orthogonalEdgeStyle;rounded=0;orthogonalLoop=1;jettySize=auto;html=1;exitX=1;exitY=1;exitDx=0;exitDy=0;entryX=0.25;entryY=1;entryDx=0;entryDy=0;strokeWidth=3;labelBackgroundColor=none;fontColor=default;strokeColor=#000000;" parent="1" source="aQRq2t5taz81R_kyDHLw-8" target="aQRq2t5taz81R_kyDHLw-13" edge="1">
          <mxGeometry relative="1" as="geometry">
            <Array as="points">
              <mxPoint x="-48" y="1410" />
              <mxPoint x="1430" y="1410" />
            </Array>
          </mxGeometry>
        </mxCell>
        <mxCell id="aQRq2t5taz81R_kyDHLw-52" style="edgeStyle=orthogonalEdgeStyle;rounded=0;orthogonalLoop=1;jettySize=auto;html=1;exitX=0.75;exitY=1;exitDx=0;exitDy=0;entryX=0;entryY=1;entryDx=0;entryDy=0;strokeWidth=3;labelBackgroundColor=none;fontColor=default;strokeColor=#000000;" parent="1" source="aQRq2t5taz81R_kyDHLw-13" target="aQRq2t5taz81R_kyDHLw-8" edge="1">
          <mxGeometry relative="1" as="geometry">
            <Array as="points">
              <mxPoint x="1490" y="1510" />
              <mxPoint x="-182" y="1510" />
            </Array>
          </mxGeometry>
        </mxCell>
        <mxCell id="aQRq2t5taz81R_kyDHLw-55" style="edgeStyle=orthogonalEdgeStyle;rounded=0;orthogonalLoop=1;jettySize=auto;html=1;exitX=1;exitY=0;exitDx=0;exitDy=0;entryX=0.75;entryY=1;entryDx=0;entryDy=0;strokeWidth=3;labelBackgroundColor=none;fontColor=default;strokeColor=#000000;" parent="1" source="aQRq2t5taz81R_kyDHLw-8" target="aQRq2t5taz81R_kyDHLw-14" edge="1">
          <mxGeometry relative="1" as="geometry">
            <Array as="points">
              <mxPoint x="-48" y="830" />
              <mxPoint x="428" y="830" />
            </Array>
          </mxGeometry>
        </mxCell>
        <mxCell id="aQRq2t5taz81R_kyDHLw-8" value="&lt;b&gt;&lt;font style=&quot;font-size: 16px;&quot;&gt;Request Tree Identification&lt;/font&gt;&lt;/b&gt;" style="ellipse;whiteSpace=wrap;html=1;aspect=fixed;strokeWidth=3;labelBackgroundColor=none;rounded=0;strokeColor=#000000;fillColor=#99FF99;" parent="1" vertex="1">
          <mxGeometry x="-210" y="855" width="190" height="190" as="geometry" />
        </mxCell>
        <mxCell id="aQRq2t5taz81R_kyDHLw-59" style="edgeStyle=orthogonalEdgeStyle;rounded=0;orthogonalLoop=1;jettySize=auto;html=1;exitX=0;exitY=0.5;exitDx=0;exitDy=0;entryX=1;entryY=0.5;entryDx=0;entryDy=0;strokeWidth=3;labelBackgroundColor=none;fontColor=default;strokeColor=#000000;" parent="1" source="aQRq2t5taz81R_kyDHLw-9" target="aQRq2t5taz81R_kyDHLw-21" edge="1">
          <mxGeometry relative="1" as="geometry" />
        </mxCell>
        <mxCell id="aQRq2t5taz81R_kyDHLw-9" value="&lt;b style=&quot;font-size: 17px;&quot;&gt;&lt;font style=&quot;font-size: 17px;&quot;&gt;Comment/&lt;/font&gt;&lt;/b&gt;&lt;div style=&quot;font-size: 17px;&quot;&gt;&lt;b&gt;&lt;font style=&quot;font-size: 17px;&quot;&gt;Rate/&lt;/font&gt;&lt;/b&gt;&lt;/div&gt;&lt;div style=&quot;font-size: 17px;&quot;&gt;&lt;b style=&quot;&quot;&gt;&lt;font style=&quot;font-size: 17px;&quot;&gt;Bookmark&lt;/font&gt;&lt;/b&gt;&lt;/div&gt;" style="ellipse;whiteSpace=wrap;html=1;aspect=fixed;strokeWidth=3;labelBackgroundColor=none;rounded=0;strokeColor=#000000;fillColor=#99FF99;" parent="1" vertex="1">
          <mxGeometry x="1270" y="567.5" width="190" height="190" as="geometry" />
        </mxCell>
        <mxCell id="aQRq2t5taz81R_kyDHLw-63" style="edgeStyle=orthogonalEdgeStyle;rounded=0;orthogonalLoop=1;jettySize=auto;html=1;exitX=0.5;exitY=0;exitDx=0;exitDy=0;entryX=0.5;entryY=1;entryDx=0;entryDy=0;strokeWidth=3;labelBackgroundColor=none;fontColor=default;strokeColor=#000000;" parent="1" source="aQRq2t5taz81R_kyDHLw-10" target="aQRq2t5taz81R_kyDHLw-22" edge="1">
          <mxGeometry relative="1" as="geometry" />
        </mxCell>
        <mxCell id="aQRq2t5taz81R_kyDHLw-10" value="&lt;b style=&quot;font-size: 17px;&quot;&gt;&lt;font style=&quot;font-size: 17px;&quot;&gt;Archive &amp;amp; Export&amp;nbsp;&lt;/font&gt;&lt;/b&gt;&lt;div style=&quot;font-size: 17px;&quot;&gt;&lt;b style=&quot;&quot;&gt;&lt;font style=&quot;font-size: 17px;&quot;&gt;Data&lt;/font&gt;&lt;/b&gt;&lt;/div&gt;" style="ellipse;whiteSpace=wrap;html=1;aspect=fixed;strokeWidth=3;labelBackgroundColor=none;rounded=0;strokeColor=#000000;fillColor=#99FF99;" parent="1" vertex="1">
          <mxGeometry x="305" y="315" width="180" height="180" as="geometry" />
        </mxCell>
        <mxCell id="aQRq2t5taz81R_kyDHLw-33" style="edgeStyle=orthogonalEdgeStyle;rounded=0;orthogonalLoop=1;jettySize=auto;html=1;exitX=0.25;exitY=1;exitDx=0;exitDy=0;entryX=0;entryY=1;entryDx=0;entryDy=0;strokeWidth=3;labelBackgroundColor=none;fontColor=default;strokeColor=#000000;" parent="1" source="aQRq2t5taz81R_kyDHLw-11" target="aQRq2t5taz81R_kyDHLw-3" edge="1">
          <mxGeometry relative="1" as="geometry">
            <mxPoint x="195.22222222222217" y="1220" as="targetPoint" />
            <Array as="points">
              <mxPoint x="195" y="1221" />
            </Array>
          </mxGeometry>
        </mxCell>
        <mxCell id="aQRq2t5taz81R_kyDHLw-34" style="edgeStyle=orthogonalEdgeStyle;rounded=0;orthogonalLoop=1;jettySize=auto;html=1;exitX=0;exitY=0;exitDx=0;exitDy=0;entryX=0.75;entryY=1;entryDx=0;entryDy=0;strokeWidth=3;labelBackgroundColor=none;fontColor=default;strokeColor=#000000;" parent="1" source="aQRq2t5taz81R_kyDHLw-3" target="aQRq2t5taz81R_kyDHLw-11" edge="1">
          <mxGeometry relative="1" as="geometry">
            <Array as="points">
              <mxPoint x="245" y="1104" />
            </Array>
          </mxGeometry>
        </mxCell>
        <mxCell id="aQRq2t5taz81R_kyDHLw-47" style="edgeStyle=orthogonalEdgeStyle;rounded=0;orthogonalLoop=1;jettySize=auto;html=1;exitX=0;exitY=0.5;exitDx=0;exitDy=0;entryX=1;entryY=0.5;entryDx=0;entryDy=0;strokeWidth=3;labelBackgroundColor=none;fontColor=default;strokeColor=#000000;" parent="1" source="aQRq2t5taz81R_kyDHLw-11" target="aQRq2t5taz81R_kyDHLw-8" edge="1">
          <mxGeometry relative="1" as="geometry" />
        </mxCell>
        <mxCell id="aQRq2t5taz81R_kyDHLw-58" style="rounded=0;orthogonalLoop=1;jettySize=auto;html=1;exitX=0.5;exitY=0;exitDx=0;exitDy=0;entryX=0.5;entryY=1;entryDx=0;entryDy=0;edgeStyle=orthogonalEdgeStyle;elbow=vertical;curved=1;strokeWidth=3;labelBackgroundColor=none;fontColor=default;strokeColor=#000000;" parent="1" source="aQRq2t5taz81R_kyDHLw-11" target="aQRq2t5taz81R_kyDHLw-9" edge="1">
          <mxGeometry relative="1" as="geometry">
            <Array as="points">
              <mxPoint x="220" y="840" />
              <mxPoint x="1365" y="840" />
            </Array>
          </mxGeometry>
        </mxCell>
        <mxCell id="aQRq2t5taz81R_kyDHLw-11" value="&lt;b&gt;&lt;font style=&quot;font-size: 17px;&quot;&gt;Viewer&lt;/font&gt;&lt;/b&gt;" style="whiteSpace=wrap;html=1;aspect=fixed;strokeWidth=3;labelBackgroundColor=none;rounded=0;strokeColor=#000000;fillColor=#99FF99;" parent="1" vertex="1">
          <mxGeometry x="170" y="900" width="100" height="100" as="geometry" />
        </mxCell>
        <mxCell id="aQRq2t5taz81R_kyDHLw-37" style="edgeStyle=orthogonalEdgeStyle;rounded=0;orthogonalLoop=1;jettySize=auto;html=1;exitX=0;exitY=0.5;exitDx=0;exitDy=0;entryX=1;entryY=0.5;entryDx=0;entryDy=0;strokeWidth=3;labelBackgroundColor=none;fontColor=default;strokeColor=#000000;" parent="1" source="aQRq2t5taz81R_kyDHLw-13" target="aQRq2t5taz81R_kyDHLw-4" edge="1">
          <mxGeometry relative="1" as="geometry" />
        </mxCell>
        <mxCell id="aQRq2t5taz81R_kyDHLw-68" style="edgeStyle=orthogonalEdgeStyle;rounded=0;orthogonalLoop=1;jettySize=auto;html=1;exitX=1;exitY=0.5;exitDx=0;exitDy=0;entryX=1;entryY=0.5;entryDx=0;entryDy=0;strokeWidth=3;labelBackgroundColor=none;fontColor=default;strokeColor=#000000;" parent="1" source="aQRq2t5taz81R_kyDHLw-13" target="aQRq2t5taz81R_kyDHLw-5" edge="1">
          <mxGeometry relative="1" as="geometry">
            <Array as="points">
              <mxPoint x="1610" y="950" />
              <mxPoint x="1610" y="405" />
            </Array>
          </mxGeometry>
        </mxCell>
        <mxCell id="aQRq2t5taz81R_kyDHLw-13" value="&lt;b&gt;&lt;font style=&quot;font-size: 17px;&quot;&gt;Contributor&lt;/font&gt;&lt;/b&gt;" style="whiteSpace=wrap;html=1;aspect=fixed;strokeWidth=3;labelBackgroundColor=none;rounded=0;strokeColor=#000000;fillColor=#99FF99;" parent="1" vertex="1">
          <mxGeometry x="1400" y="890" width="120" height="120" as="geometry" />
        </mxCell>
        <mxCell id="aQRq2t5taz81R_kyDHLw-40" style="edgeStyle=orthogonalEdgeStyle;rounded=0;orthogonalLoop=1;jettySize=auto;html=1;entryX=0;entryY=0.5;entryDx=0;entryDy=0;strokeWidth=3;labelBackgroundColor=none;fontColor=default;strokeColor=#000000;" parent="1" source="aQRq2t5taz81R_kyDHLw-14" target="aQRq2t5taz81R_kyDHLw-6" edge="1">
          <mxGeometry relative="1" as="geometry" />
        </mxCell>
        <mxCell id="aQRq2t5taz81R_kyDHLw-44" style="edgeStyle=orthogonalEdgeStyle;rounded=0;orthogonalLoop=1;jettySize=auto;html=1;entryX=1;entryY=0.5;entryDx=0;entryDy=0;strokeWidth=3;labelBackgroundColor=none;fontColor=default;strokeColor=#000000;" parent="1" source="aQRq2t5taz81R_kyDHLw-14" target="aQRq2t5taz81R_kyDHLw-7" edge="1">
          <mxGeometry relative="1" as="geometry" />
        </mxCell>
        <mxCell id="aQRq2t5taz81R_kyDHLw-56" style="edgeStyle=orthogonalEdgeStyle;rounded=0;orthogonalLoop=1;jettySize=auto;html=1;exitX=0.25;exitY=1;exitDx=0;exitDy=0;entryX=0;entryY=0;entryDx=0;entryDy=0;strokeWidth=3;labelBackgroundColor=none;fontColor=default;strokeColor=#000000;" parent="1" source="aQRq2t5taz81R_kyDHLw-14" target="aQRq2t5taz81R_kyDHLw-8" edge="1">
          <mxGeometry relative="1" as="geometry" />
        </mxCell>
        <mxCell id="aQRq2t5taz81R_kyDHLw-61" style="edgeStyle=orthogonalEdgeStyle;rounded=0;orthogonalLoop=1;jettySize=auto;html=1;exitX=0.5;exitY=0;exitDx=0;exitDy=0;entryX=0.5;entryY=1;entryDx=0;entryDy=0;strokeWidth=3;labelBackgroundColor=none;fontColor=default;strokeColor=#000000;" parent="1" source="aQRq2t5taz81R_kyDHLw-14" target="aQRq2t5taz81R_kyDHLw-10" edge="1">
          <mxGeometry relative="1" as="geometry" />
        </mxCell>
        <mxCell id="aQRq2t5taz81R_kyDHLw-14" value="&lt;b&gt;&lt;font style=&quot;font-size: 17px;&quot;&gt;Admin&lt;/font&gt;&lt;/b&gt;" style="whiteSpace=wrap;html=1;aspect=fixed;strokeWidth=3;labelBackgroundColor=none;rounded=0;strokeColor=#000000;fillColor=#99FF99;" parent="1" vertex="1">
          <mxGeometry x="330" y="597.5" width="130" height="130" as="geometry" />
        </mxCell>
        <mxCell id="aQRq2t5taz81R_kyDHLw-64" style="edgeStyle=orthogonalEdgeStyle;rounded=0;orthogonalLoop=1;jettySize=auto;html=1;exitX=0;exitY=0.5;exitDx=0;exitDy=0;entryX=1;entryY=0.5;entryDx=0;entryDy=0;strokeWidth=3;labelBackgroundColor=none;fontColor=default;strokeColor=#000000;" parent="1" source="aQRq2t5taz81R_kyDHLw-15" target="aQRq2t5taz81R_kyDHLw-10" edge="1">
          <mxGeometry relative="1" as="geometry" />
        </mxCell>
        <mxCell id="aQRq2t5taz81R_kyDHLw-15" value="&lt;b style=&quot;font-size: 17px;&quot;&gt;&lt;font style=&quot;font-size: 17px;&quot;&gt;External&amp;nbsp;&lt;/font&gt;&lt;/b&gt;&lt;div style=&quot;font-size: 17px;&quot;&gt;&lt;b&gt;&lt;font style=&quot;font-size: 17px;&quot;&gt;Researcher/&lt;/font&gt;&lt;/b&gt;&lt;/div&gt;&lt;div style=&quot;font-size: 17px;&quot;&gt;&lt;b style=&quot;&quot;&gt;&lt;font style=&quot;font-size: 17px;&quot;&gt;Organization&lt;/font&gt;&lt;/b&gt;&lt;/div&gt;" style="whiteSpace=wrap;html=1;aspect=fixed;strokeWidth=3;labelBackgroundColor=none;rounded=0;strokeColor=#000000;fillColor=#99FF99;" parent="1" vertex="1">
          <mxGeometry x="682.5" y="332.5" width="145" height="145" as="geometry" />
        </mxCell>
        <mxCell id="aQRq2t5taz81R_kyDHLw-17" value="&lt;b&gt;&lt;font style=&quot;font-size: 17px;&quot;&gt;Tree Database&lt;/font&gt;&lt;/b&gt;" style="rounded=0;whiteSpace=wrap;html=1;strokeWidth=3;labelBackgroundColor=none;strokeColor=#000000;fillColor=#99FF99;" parent="1" vertex="1">
          <mxGeometry x="670" y="915" width="170" height="70" as="geometry" />
        </mxCell>
        <mxCell id="aQRq2t5taz81R_kyDHLw-20" value="&lt;b&gt;&lt;font style=&quot;font-size: 17px;&quot;&gt;User Database&lt;/font&gt;&lt;/b&gt;" style="rounded=0;whiteSpace=wrap;html=1;strokeWidth=3;labelBackgroundColor=none;strokeColor=#000000;fillColor=#99FF99;" parent="1" vertex="1">
          <mxGeometry x="-380" y="627.5" width="170" height="70" as="geometry" />
        </mxCell>
        <mxCell id="aQRq2t5taz81R_kyDHLw-21" value="&lt;b&gt;&lt;font style=&quot;font-size: 17px;&quot;&gt;Posts/Comments&lt;/font&gt;&lt;/b&gt;&lt;div&gt;&lt;span style=&quot;font-size: 17px;&quot;&gt;&lt;b&gt;Database&lt;/b&gt;&lt;/span&gt;&lt;/div&gt;" style="rounded=0;whiteSpace=wrap;html=1;strokeWidth=3;labelBackgroundColor=none;strokeColor=#000000;fillColor=#99FF99;" parent="1" vertex="1">
          <mxGeometry x="967" y="627.5" width="170" height="70" as="geometry" />
        </mxCell>
        <mxCell id="aQRq2t5taz81R_kyDHLw-22" value="&lt;span style=&quot;font-size: 17px;&quot;&gt;&lt;b&gt;Archive/Export&lt;/b&gt;&lt;/span&gt;&lt;div&gt;&lt;span style=&quot;font-size: 17px;&quot;&gt;&lt;b&gt;Store&lt;/b&gt;&lt;/span&gt;&lt;/div&gt;" style="rounded=0;whiteSpace=wrap;html=1;strokeWidth=3;labelBackgroundColor=none;strokeColor=#000000;fillColor=#99FF99;" parent="1" vertex="1">
          <mxGeometry x="310" y="140" width="170" height="70" as="geometry" />
        </mxCell>
        <mxCell id="aQRq2t5taz81R_kyDHLw-24" value="&lt;b&gt;&lt;font style=&quot;font-size: 17px;&quot;&gt;&lt;i&gt;Search Query&lt;/i&gt;&lt;/font&gt;&lt;/b&gt;" style="text;html=1;align=center;verticalAlign=middle;resizable=0;points=[];autosize=1;strokeColor=#000000;fillColor=none;labelBackgroundColor=none;rounded=0;" parent="1" vertex="1">
          <mxGeometry x="280" y="885" width="130" height="30" as="geometry" />
        </mxCell>
        <mxCell id="aQRq2t5taz81R_kyDHLw-27" value="&lt;b&gt;&lt;font style=&quot;font-size: 17px;&quot;&gt;&lt;i&gt;Results&lt;/i&gt;&lt;/font&gt;&lt;/b&gt;" style="text;html=1;align=center;verticalAlign=middle;resizable=0;points=[];autosize=1;strokeColor=#000000;fillColor=none;labelBackgroundColor=none;rounded=0;" parent="1" vertex="1">
          <mxGeometry x="310" y="960" width="80" height="30" as="geometry" />
        </mxCell>
        <mxCell id="aQRq2t5taz81R_kyDHLw-29" style="edgeStyle=orthogonalEdgeStyle;rounded=0;orthogonalLoop=1;jettySize=auto;html=1;entryX=0.064;entryY=0.269;entryDx=0;entryDy=0;strokeWidth=3;entryPerimeter=0;exitX=1.007;exitY=0.13;exitDx=0;exitDy=0;exitPerimeter=0;labelBackgroundColor=none;fontColor=default;strokeColor=#000000;" parent="1" source="aQRq2t5taz81R_kyDHLw-11" target="aQRq2t5taz81R_kyDHLw-1" edge="1">
          <mxGeometry relative="1" as="geometry">
            <mxPoint x="280" y="930" as="targetPoint" />
            <mxPoint x="300" y="910" as="sourcePoint" />
          </mxGeometry>
        </mxCell>
        <mxCell id="aQRq2t5taz81R_kyDHLw-35" value="&lt;b&gt;&lt;font style=&quot;font-size: 17px;&quot;&gt;&lt;i&gt;Tree Details&lt;/i&gt;&lt;/font&gt;&lt;/b&gt;" style="text;html=1;align=center;verticalAlign=middle;resizable=0;points=[];autosize=1;strokeColor=#000000;fillColor=none;labelBackgroundColor=none;rounded=0;" parent="1" vertex="1">
          <mxGeometry x="280" y="1080" width="120" height="30" as="geometry" />
        </mxCell>
        <mxCell id="aQRq2t5taz81R_kyDHLw-36" value="&lt;b&gt;&lt;font style=&quot;font-size: 17px;&quot;&gt;&lt;i&gt;View Profie Request&lt;/i&gt;&lt;/font&gt;&lt;/b&gt;" style="text;html=1;align=center;verticalAlign=middle;resizable=0;points=[];autosize=1;strokeColor=#000000;fillColor=none;labelBackgroundColor=none;rounded=0;" parent="1" vertex="1">
          <mxGeometry x="210" y="1190" width="190" height="30" as="geometry" />
        </mxCell>
        <mxCell id="aQRq2t5taz81R_kyDHLw-39" value="&lt;b&gt;&lt;font style=&quot;font-size: 17px;&quot;&gt;&lt;i&gt;Submit Tree Sighting&lt;/i&gt;&lt;/font&gt;&lt;/b&gt;" style="text;html=1;align=center;verticalAlign=middle;resizable=0;points=[];autosize=1;strokeColor=#000000;fillColor=none;labelBackgroundColor=none;rounded=0;" parent="1" vertex="1">
          <mxGeometry x="1200" y="915" width="190" height="30" as="geometry" />
        </mxCell>
        <mxCell id="aQRq2t5taz81R_kyDHLw-41" value="&lt;b&gt;&lt;font style=&quot;font-size: 17px;&quot;&gt;&lt;i&gt;Approval Decision&lt;/i&gt;&lt;/font&gt;&lt;/b&gt;" style="text;html=1;align=center;verticalAlign=middle;resizable=0;points=[];autosize=1;strokeColor=#000000;fillColor=none;labelBackgroundColor=none;rounded=0;" parent="1" vertex="1">
          <mxGeometry x="470" y="630" width="170" height="30" as="geometry" />
        </mxCell>
        <mxCell id="aQRq2t5taz81R_kyDHLw-45" value="&lt;b&gt;&lt;font style=&quot;font-size: 17px;&quot;&gt;&lt;i&gt;User Role Updates&lt;/i&gt;&lt;/font&gt;&lt;/b&gt;" style="text;html=1;align=center;verticalAlign=middle;resizable=0;points=[];autosize=1;strokeColor=#000000;fillColor=none;labelBackgroundColor=none;rounded=0;" parent="1" vertex="1">
          <mxGeometry x="135" y="627.5" width="170" height="30" as="geometry" />
        </mxCell>
        <mxCell id="aQRq2t5taz81R_kyDHLw-48" value="&lt;b&gt;&lt;font style=&quot;font-size: 17px;&quot;&gt;&lt;i&gt;Tree ID Request&lt;/i&gt;&lt;/font&gt;&lt;/b&gt;" style="text;html=1;align=center;verticalAlign=middle;resizable=0;points=[];autosize=1;strokeColor=#000000;fillColor=none;labelBackgroundColor=none;rounded=0;" parent="1" vertex="1">
          <mxGeometry y="915" width="150" height="30" as="geometry" />
        </mxCell>
        <mxCell id="aQRq2t5taz81R_kyDHLw-53" value="&lt;b&gt;&lt;font style=&quot;font-size: 17px;&quot;&gt;&lt;i&gt;Response&lt;/i&gt;&lt;/font&gt;&lt;/b&gt;" style="text;html=1;align=center;verticalAlign=middle;resizable=0;points=[];autosize=1;strokeColor=#000000;fillColor=none;labelBackgroundColor=none;rounded=0;" parent="1" vertex="1">
          <mxGeometry x="485" y="1480" width="100" height="30" as="geometry" />
        </mxCell>
        <mxCell id="aQRq2t5taz81R_kyDHLw-57" value="&lt;b&gt;&lt;font style=&quot;font-size: 17px;&quot;&gt;&lt;i&gt;Response&lt;/i&gt;&lt;/font&gt;&lt;/b&gt;" style="text;html=1;align=center;verticalAlign=middle;resizable=0;points=[];autosize=1;strokeColor=#000000;fillColor=none;labelBackgroundColor=none;rounded=0;" parent="1" vertex="1">
          <mxGeometry x="110" y="757.5" width="100" height="30" as="geometry" />
        </mxCell>
        <mxCell id="aQRq2t5taz81R_kyDHLw-60" value="&lt;b&gt;&lt;font style=&quot;font-size: 17px;&quot;&gt;&lt;i&gt;Comment/Rating&lt;/i&gt;&lt;/font&gt;&lt;/b&gt;" style="text;html=1;align=center;verticalAlign=middle;resizable=0;points=[];autosize=1;strokeColor=#000000;fillColor=none;labelBackgroundColor=none;rounded=0;" parent="1" vertex="1">
          <mxGeometry x="880" y="800" width="160" height="30" as="geometry" />
        </mxCell>
        <mxCell id="aQRq2t5taz81R_kyDHLw-65" value="&lt;b&gt;&lt;font style=&quot;font-size: 17px;&quot;&gt;&lt;i&gt;Export Request&lt;/i&gt;&lt;/font&gt;&lt;/b&gt;" style="text;html=1;align=center;verticalAlign=middle;resizable=0;points=[];autosize=1;strokeColor=#000000;fillColor=none;labelBackgroundColor=none;rounded=0;" parent="1" vertex="1">
          <mxGeometry x="240" y="530" width="150" height="30" as="geometry" />
        </mxCell>
        <mxCell id="aQRq2t5taz81R_kyDHLw-66" value="&lt;b&gt;&lt;font style=&quot;font-size: 17px;&quot;&gt;&lt;i&gt;Export Request&lt;/i&gt;&lt;/font&gt;&lt;/b&gt;" style="text;html=1;align=center;verticalAlign=middle;resizable=0;points=[];autosize=1;strokeColor=#000000;fillColor=none;labelBackgroundColor=none;rounded=0;" parent="1" vertex="1">
          <mxGeometry x="512.5" y="370" width="150" height="30" as="geometry" />
        </mxCell>
        <mxCell id="aQRq2t5taz81R_kyDHLw-70" value="&lt;b&gt;&lt;font style=&quot;font-size: 17px;&quot;&gt;&lt;i&gt;Post Content&lt;/i&gt;&lt;/font&gt;&lt;/b&gt;" style="text;html=1;align=center;verticalAlign=middle;resizable=0;points=[];autosize=1;strokeColor=#000000;fillColor=none;labelBackgroundColor=none;rounded=0;" parent="1" vertex="1">
          <mxGeometry x="1340" y="370" width="130" height="30" as="geometry" />
        </mxCell>
      </root>
    </mxGraphModel>
  </diagram>
</mxfile>
